# xmcd CD database file
#
# Track frame offsets:
#	150
#	20307
#	44085
#	69095
#
# Disc length: 1188 seconds
#
# Revision: 0
# Processed by: cddbd v1.5PL3 Copyright (c) Steve Scherf et al.
# Submitted via: CDex 1.50beta10
#
DISCID=2b04a204
DTITLE=Nona Reeves - Changin'
DYEAR=2003
DGENRE=Rock
TTITLE0=Changin'
TTITLE1=Enjpyee! (Your Lifetime)Live
TTITLE2=Hippopotamus Live
TTITLE3=Changin' [Instrumental]
EXTD=YEAR: 2003
EXTT0=
EXTT1=
EXTT2=
EXTT3=
PLAYORDER=
